<svg width="51" height="33" viewBox="0 0 51 33" fill="none" xmlns="http://www.w3.org/2000/svg">
<path d="M1.62323 22.3548C1.02726 22.3548 0.603808 22.0394 0.352875 21.4086C0.117625 20.7778 0 19.7685 0 18.3806C0 16.3305 0.290142 14.3828 0.870425 12.5376C1.01158 12.0803 1.23898 11.7491 1.55265 11.5441C1.882 11.3233 2.33682 11.2129 2.9171 11.2129C3.23077 11.2129 3.45033 11.2523 3.5758 11.3312C3.70127 11.41 3.764 11.5599 3.764 11.7806C3.764 12.033 3.64638 12.6007 3.41113 13.4839C3.25429 14.1147 3.12883 14.6667 3.03473 15.1398C2.94063 15.5971 2.86221 16.1728 2.79948 16.8667C3.22293 15.6366 3.72479 14.5957 4.30508 13.7441C4.90104 12.8925 5.50485 12.2616 6.1165 11.8516C6.74383 11.4258 7.33196 11.2129 7.88088 11.2129C8.42979 11.2129 8.81403 11.3391 9.0336 11.5914C9.26885 11.8437 9.38648 12.2301 9.38648 12.7505C9.38648 13.2552 9.23748 14.1699 8.9395 15.4946C8.81403 16.0624 8.72778 16.4882 8.68073 16.772C9.46489 14.8323 10.3353 13.4208 11.292 12.5376C12.2487 11.6545 13.1426 11.2129 13.9739 11.2129C14.9933 11.2129 15.503 11.7254 15.503 12.7505C15.503 13.3656 15.3305 14.4774 14.9854 16.086C14.6874 17.4581 14.5385 18.3649 14.5385 18.8065C14.5385 19.4373 14.7659 19.7527 15.2207 19.7527C15.5343 19.7527 15.9029 19.5634 16.3264 19.1849C16.7655 18.7907 17.3458 18.1599 18.0672 17.2925C18.2554 17.0717 18.4671 16.9613 18.7024 16.9613C18.9063 16.9613 19.0631 17.0559 19.1729 17.2452C19.2983 17.4344 19.3611 17.6946 19.3611 18.0258C19.3611 18.6566 19.2121 19.1455 18.9141 19.4925C18.2397 20.3283 17.5104 21.0143 16.7263 21.5505C15.9578 22.0867 15.0795 22.3548 14.0915 22.3548C13.2916 22.3548 12.6878 22.1262 12.2801 21.6688C11.8723 21.1957 11.6684 20.5176 11.6684 19.6344C11.6684 19.1928 11.7782 18.4043 11.9978 17.2688C12.2016 16.2753 12.3036 15.5892 12.3036 15.2108C12.3036 14.9584 12.2173 14.8323 12.0448 14.8323C11.8409 14.8323 11.5508 15.1004 11.1744 15.6366C10.798 16.157 10.4216 16.8509 10.0452 17.7183C9.66878 18.5857 9.36295 19.5004 9.1277 20.4624C8.95518 21.2194 8.7513 21.724 8.51605 21.9763C8.29648 22.2287 7.93577 22.3548 7.4339 22.3548C6.91635 22.3548 6.52427 22.1104 6.25765 21.6215C6.00672 21.1168 5.88125 20.5097 5.88125 19.8C5.88125 19.2007 5.95967 18.3333 6.1165 17.1978C6.24197 16.1885 6.3047 15.5262 6.3047 15.2108C6.3047 14.9584 6.21844 14.8323 6.04593 14.8323C5.81068 14.8323 5.51269 15.1161 5.15198 15.6839C4.79126 16.2516 4.43838 16.9771 4.09335 17.8602C3.764 18.7434 3.49738 19.6108 3.2935 20.4624C3.12098 21.2036 2.9171 21.7082 2.68185 21.9763C2.46228 22.2287 2.10941 22.3548 1.62323 22.3548Z" fill="#925F30"/>
<path d="M29.5037 17.0086C29.7075 17.0086 29.8644 17.1111 29.9742 17.3161C30.0996 17.5054 30.1624 17.7498 30.1624 18.0495C30.1624 18.4122 30.1075 18.6961 29.9977 18.9011C29.8879 19.1061 29.7154 19.2875 29.4801 19.4452L24.9633 22.4968C24.3674 25.7613 23.5832 28.324 22.6108 30.1849C21.6542 32.0616 20.4309 33 18.9409 33C18.1411 33 17.4902 32.7477 16.9884 32.243C16.4865 31.7541 16.2356 31.1075 16.2356 30.3032C16.2356 29.562 16.4002 28.805 16.7296 28.0323C17.0746 27.2595 17.702 26.3685 18.6116 25.3591C19.5369 24.3656 20.8386 23.2222 22.5167 21.929L22.5873 21.3849C22.6971 20.8014 22.8226 19.9656 22.9637 18.8774C22.65 20.0129 22.2109 20.8803 21.6463 21.4796C21.0817 22.0631 20.4857 22.3548 19.8584 22.3548C19.1527 22.3548 18.5724 22.0315 18.1176 21.3849C17.6784 20.7226 17.4589 19.9025 17.4589 18.9247C17.4589 17.7419 17.5373 16.6616 17.6941 15.6839C17.8509 14.6903 18.1097 13.6416 18.4704 12.5376C18.6273 12.0645 18.8468 11.7254 19.1291 11.5204C19.4114 11.3154 19.8584 11.2129 20.4701 11.2129C20.8151 11.2129 21.0503 11.2681 21.1758 11.3785C21.317 11.4889 21.3875 11.6545 21.3875 11.8753C21.3875 12.0014 21.3013 12.4272 21.1288 13.1527C20.9719 13.7362 20.8465 14.2645 20.7524 14.7376C20.6269 15.3842 20.5171 16.0072 20.423 16.6065C20.3289 17.19 20.2819 17.671 20.2819 18.0495C20.2819 18.6487 20.4465 18.9484 20.7759 18.9484C21.0111 18.9484 21.3013 18.7118 21.6463 18.2387C22.007 17.7656 22.3834 17.048 22.7755 16.086C23.1833 15.124 23.5754 13.9412 23.9518 12.5376C24.0772 12.0645 24.2654 11.7254 24.5164 11.5204C24.783 11.3154 25.1751 11.2129 25.6926 11.2129C26.0533 11.2129 26.3043 11.2602 26.4454 11.3548C26.5866 11.4495 26.6571 11.6072 26.6571 11.828C26.6571 12.2222 26.4533 13.5785 26.0455 15.8968L25.4338 19.7054C26.6415 18.7907 27.8177 17.9548 28.9626 17.1978C29.1665 17.0717 29.3468 17.0086 29.5037 17.0086ZM19.1997 30.7054C19.5918 30.7054 20.0309 30.248 20.5171 29.3333C21.0033 28.4186 21.4895 26.8968 21.9757 24.7677C20.768 25.7928 19.8898 26.7233 19.3409 27.5591C18.8076 28.4108 18.541 29.152 18.541 29.7828C18.541 30.0509 18.5881 30.2717 18.6822 30.4452C18.7919 30.6186 18.9645 30.7054 19.1997 30.7054Z" fill="#925F30"/>
<path d="M37.6429 15.6129C38.0821 15.6129 38.3016 15.9441 38.3016 16.6065C38.3016 17.8523 37.3293 18.4753 35.3845 18.4753C35.0081 18.4753 34.4671 18.4043 33.7613 18.2624C33.9652 19.2401 34.1299 20.3283 34.2553 21.5269C34.3965 22.7097 34.4671 23.6875 34.4671 24.4602C34.4671 26.1634 34.1926 27.4645 33.6437 28.3634C33.0948 29.2624 32.3733 29.7118 31.4794 29.7118C30.3502 29.7118 29.5425 28.9075 29.0563 27.2989C28.5858 25.6903 28.3506 23.2616 28.3506 20.0129C28.3506 16.9849 28.6721 13.9176 29.3151 10.8108C29.9738 7.68817 30.8677 5.10968 31.9969 3.07527C33.1418 1.02509 34.3965 0 35.7609 0C36.4981 0 37.0705 0.331183 37.4783 0.993548C37.9017 1.65591 38.1134 2.54695 38.1134 3.66667C38.1134 7.37276 35.9099 11.41 31.5029 15.7785C31.3461 17.324 31.2677 18.6803 31.2677 19.8473C31.2677 21.4717 31.3226 23.1355 31.4323 24.8387C31.5421 26.5577 31.7225 27.4172 31.9734 27.4172C32.4439 27.4172 32.6792 26.5971 32.6792 24.957C32.6792 23.7269 32.5929 22.5362 32.4204 21.3849C32.2636 20.2337 32.044 19.0194 31.7617 17.7419C31.746 17.5369 31.8087 17.2767 31.9499 16.9613C32.1067 16.6459 32.2949 16.3699 32.5145 16.1333C32.7341 15.8968 32.9301 15.7785 33.1026 15.7785C33.4163 15.7785 33.7927 15.7943 34.2318 15.8258C34.373 15.8416 34.5376 15.8495 34.7258 15.8495C35.3532 15.8495 36.0511 15.7943 36.8196 15.6839C36.945 15.6681 37.0783 15.6523 37.2195 15.6366C37.3606 15.6208 37.5018 15.6129 37.6429 15.6129ZM35.2669 2.34194C34.9846 2.34194 34.6317 2.82294 34.2083 3.78495C33.8005 4.74695 33.3928 6.02437 32.985 7.6172C32.5772 9.19427 32.2244 10.866 31.9264 12.6323C33.181 11.1971 34.1456 9.70681 34.8199 8.16129C35.4943 6.6 35.8394 5.14122 35.855 3.78495C35.855 2.82294 35.659 2.34194 35.2669 2.34194Z" fill="#925F30"/>
<path d="M40.9026 22.3548C39.4127 22.3548 38.2443 21.9211 37.3974 21.0538C36.5662 20.1706 36.1506 19.0115 36.1506 17.5763C36.1506 16.2989 36.4015 15.1792 36.9034 14.2172C37.4052 13.2552 38.0561 12.514 38.8559 11.9935C39.6558 11.4731 40.4949 11.2129 41.3731 11.2129C42.2357 11.2129 42.9023 11.4731 43.3728 11.9935C43.8589 12.4982 44.102 13.1527 44.102 13.957C44.102 14.6194 43.953 15.1792 43.6551 15.6366C43.3727 16.0939 42.9964 16.3226 42.5259 16.3226C42.2279 16.3226 41.9848 16.2516 41.7966 16.1097C41.6241 15.9677 41.5378 15.7706 41.5378 15.5183C41.5378 15.4079 41.5535 15.2817 41.5849 15.1398C41.6162 14.9978 41.6397 14.8953 41.6554 14.8323C41.7338 14.5957 41.7731 14.3749 41.7731 14.1699C41.7731 13.9649 41.7182 13.8072 41.6084 13.6968C41.5143 13.5864 41.3731 13.5312 41.1849 13.5312C40.8242 13.5312 40.487 13.6968 40.1734 14.028C39.8597 14.3434 39.6088 14.7771 39.4206 15.329C39.2324 15.881 39.1382 16.4882 39.1382 17.1505C39.1382 18.0495 39.3186 18.7355 39.6793 19.2086C40.0557 19.6659 40.5811 19.8946 41.2555 19.8946C41.7887 19.8946 42.2749 19.7369 42.7141 19.4215C43.1689 19.1061 43.6158 18.6409 44.055 18.0258C44.2432 17.7892 44.4549 17.671 44.6902 17.671C44.894 17.671 45.0509 17.7656 45.1607 17.9548C45.2861 18.1441 45.3489 18.4043 45.3489 18.7355C45.3489 19.3032 45.2155 19.7921 44.9489 20.2022C44.5255 20.8645 43.9687 21.3928 43.2787 21.7871C42.5886 22.1656 41.7966 22.3548 40.9026 22.3548Z" fill="#925F30"/>
<path d="M48.7181 22.3548C48.028 22.3548 47.5026 22.1656 47.1419 21.7871C46.7969 21.4086 46.6243 20.9118 46.6243 20.2968C46.6243 19.5871 46.8204 19.0194 47.2125 18.5935C47.6202 18.1677 48.1848 17.9548 48.9063 17.9548C49.5963 17.9548 50.1139 18.1283 50.4589 18.4753C50.8196 18.8064 51 19.3032 51 19.9656C51 20.691 50.7961 21.2746 50.3883 21.7161C49.9806 22.1419 49.4238 22.3548 48.7181 22.3548Z" fill="#925F30"/>
</svg>
